/* XPM */
static char *ccd6b5c69eeb47fdd0ff8692e1c59bc8o2xlmATZNlIpMiSe[] = {
/* columns rows colors chars-per-pixel */
"50 50 133 2 ",
"   c #AC6C48",
".  c #9B603B",
"X  c #905833",
"o  c #8E5631",
"O  c #7F4A23",
"+  c #7B4720",
"@  c #9D623D",
"#  c #8B542E",
"$  c #7C4821",
"%  c #AB6B47",
"&  c #A16440",
"*  c #925934",
"=  c #955B37",
"-  c #8D5631",
";  c #8F5732",
":  c #87502A",
">  c #804B24",
",  c #854F29",
"<  c #7E4923",
"1  c #AA6B47",
"2  c #9C603C",
"3  c #A66844",
"4  c #AA6A46",
"5  c #965C37",
"6  c #925A35",
"7  c #A26540",
"8  c #975D38",
"9  c #824D26",
"0  c #88512C",
"q  c #915934",
"w  c #844E28",
"e  c #A56742",
"r  c #A96A46",
"t  c #935A35",
"y  c #915933",
"u  c #814B25",
"i  c #87512B",
"p  c #9F623E",
"a  c #854F28",
"s  c #AD6C48",
"d  c #9E623D",
"f  c #8D5530",
"g  c #7E4A23",
"h  c #A46642",
"j  c #A66743",
"k  c #A86944",
"l  c #A0633F",
"z  c #89522C",
"x  c #A86945",
"c  c #985E39",
"v  c #985D38",
"b  c #955B36",
"n  c #995E39",
"m  c #8D5630",
"M  c #A0643F",
"N  c #A36641",
"B  c #AB6C47",
"V  c #9D613D",
"C  c #7F4A24",
"Z  c #8F5833",
"A  c #9D613C",
"S  c #955C37",
"D  c #7A461F",
"F  c #804B25",
"G  c #9C603B",
"H  c #88522C",
"J  c #8B532E",
"K  c #9A5F3A",
"L  c #8C5530",
"P  c #7A4720",
"I  c #7A4620",
"U  c #8F5832",
"Y  c #89522D",
"T  c #77451F",
"R  c #6B3E1D",
"E  c #693D1C",
"W  c #73421E",
"Q  c #945B36",
"!  c #A46742",
"~  c #834D27",
"^  c #6D3F1D",
"/  c #62391B",
"(  c #683C1C",
")  c #79461F",
"_  c #9E623E",
"`  c #865029",
"'  c #6C3E1D",
"]  c #683B1C",
"[  c #A26440",
"{  c #A36541",
"}  c #915833",
"|  c #86502A",
" . c #77441F",
".. c #6B3D1C",
"X. c #693C1C",
"o. c #7C4720",
"O. c #7D4922",
"+. c #88512B",
"@. c #9F633E",
"#. c #A66843",
"$. c #8A542E",
"%. c #824D27",
"&. c #8A532D",
"*. c #8C542F",
"=. c #7D4821",
"-. c #794620",
";. c #70411E",
":. c #78451F",
">. c #8A532E",
",. c #8C552F",
"<. c #7D4822",
"1. c #7E4922",
"2. c #7C4721",
"3. c #824C26",
"4. c #814C25",
"5. c #663A1B",
"6. c #653A1B",
"7. c #63391B",
"8. c #74431E",
"9. c #6E3F1D",
"0. c #76441F",
"q. c #673C1C",
"w. c #643A1B",
"e. c #673B1C",
"r. c #75431F",
"t. c #72411E",
"y. c #71411E",
"u. c #72421E",
"i. c #75441F",
"p. c #6A3D1C",
"a. c #64391B",
"s. c #6F401D",
"d. c white",
/* pixels */
"                    . X X X X X X X X o O + + + + + + + + + + + + + + + + + + + + + + + + + + + + + ",
"                    @ X X X X X X X X # $ + + + + + + + + + + + + + + + + + + + + + + + + + + + + + ",
"                %   & X * @ = X - ; X : + > , < + + + + + + + + + + + + + + + + + + + + + + + + + + ",
"              1 2 3 4 5 6 7 8 X # - X 9 + 0 q w + + + + + + + + + + + + + + + + + + + + + + + + + + ",
"              % e r   e t y X X X X ; u + u i O + + + + + + + + + + + + + + + + + + + + + + + + + + ",
"                        p X X X X X X a + + + + + + + + + + + + + + + + + + + + + + + + + + + + + + ",
"                      s d X X X X X X f g + + + + + + + + + + + + + + + + + + + + + + + + + + + + + ",
"        % h j     % k l t X X X X X X X z $ + + + + + + + + + + + + + + + + + + + + + + + + + + + + ",
"        x t c % j v b n t X X X X m # ; X , + + + + + + + + + + + + + + + + + + + + + + + + + + + + ",
"        % M N B n ; c % V X X X m > $ , X o C + g $ + + + + + + + + + + + + + + + + + + + + + + + + ",
"              % 5 Z t A S X X X # + D > ; ; F < # C + + + + + + + + + + + + + + + + + + + + + + + + ",
"                G X X X X X X X ; w > H X J $ $ > $ + + + + + + + + + + + + + + + + + + + + + + + + ",
"                j * X X X X X X X Z ; X m > + + + + + + + + + + + + + + + + + + + + + + + + + + + + ",
"                  K X X X X q t X X X L u + + + + + + + + + + + + + + + + + + P I + + + + + + + + + ",
"      % l V r     7 X X X X t 8 X U Y O + + + + + + + + + + + + + + + + + + T R E W + + + + + + + + ",
"      r Q X ! s % K X X X X X X f ~ $ + + + + + + + + + + + + + + + + + + + ^ / / ( ) + + + + + + + ",
"    s   & _ 1 % p q X X X X X o ~ ` F + + + + + + + + + + + + + + + + + + + ' / / ] ) + + + + + + + ",
"h 7 [ { e N l n } X X X X X X i F ; | + + + + + + + + + + + + + + + + + + +  ...X.W + + + + + + + + ",
"q X X } * 5 5 } X X X X X X X , o.F O.+ + + + + + + + + + + + + + + + + + + + I I + + + + + + + + + ",
"} * X X c x 1 d X X # +.o X X | + + + + + + +  .T + + + + + + + + + + + + + + + + + + + + + + + + + ",
"c [ * X @.s s #.* - O + , X X Y + + + + + + + P P + + + + + + + + + + + + + + + + + + + + + + + + + ",
"t 8 } X n r % _ X o > + | X X m < + + + + o.+ + + + + + + + + + + + + + + + + + + + + + + + + + + + ",
"X X X X ; S 8 q X X f $.; X X X %.+ + $ , &.C + + + + + + + + + + + + + + + + + + + + + + + + + + + ",
"X X ; | > , ; X X X X X X X X X H + + O.m q w + + + + + + + + + + + + + + + + + + + + + + + + + + + ",
"X X *.=.+ $ # X X X X X X X X X f O.+ o.w i g + + + + + + + + + + + + + -.T + + + + + + + + + + + + ",
"X X f < P O.L X X X X X X X X X o O + + + + + + + + + + + + + + + + + + ;.( :.+ + + + + + + + + + + ",
"X X X # , >.X X X X X f # X X X ,.<.+ + + + + + + + + + + + + + + + + +  .W P + + + + + + + + + + + ",
"X X X X X X X X X X X , > ; X X | + + + + + + + + + + + + + + + + + + + + + + + + + + + + + + + + + ",
"; o ; X X X X X X X X m *.X X *.1.+ + + + + + + + + + + + + + + + + + + + + + + + + + + + + + + + + ",
"F C F ~ i >.- ; X X X X X ; >.C + + + + + + + + + + + + + + + + + + + + + + + + + + + + + + + + + + ",
"+ + $ 2.+ $ 1.F w | +.+.| 3.$ + + + 4.O + + + + + + + + + + + + + + + + + + + + + + + + + + + + + + ",
"+ + + + + + + + + + + + + + + + + + > 1.+ + + + + + + + + + + + + + + + + + + + + + + + + + + + + + ",
"+ + + + + + + + + + + + + + + + + + + + + + + + + + + + + + + + + + + + + + + + + + + + + + + + + + ",
"+ + + + C w C + + + + + + + + + + + + + + + + + + + + + + + + + + + + + + + + + P T T I + + + + + + ",
"+ + + 1.,.X ,.< + + + + + + + + + + + + + + + + + + + + + + + + + + + + + + + -.^ 5.6.R :.+ + + + + ",
"+ + + > ; X ; F + + + + + + + + + + + + + + + + + + + + + + + + + + + + + + + ;.7.7.7.7.^ + + + + + ",
"+ + + $ i m i $ + + + + + + + + + + + + + + + + + + + + + + + + + + + + + + P R 7.7.7.7.( I + + + + ",
"+ + + + $ O.$ + + + + + + + + + + + + + + + + + + + + :.W 8.I + + + + + + + + 9.7.7.7.7...P + + + + ",
"+ + + + + + + + + + + + + + + + + + + + + + + + + + 0.q.7.w.^ I + + + + + + +  .( 7.7.e.r.+ + + + + ",
"+ + + + + + + + + + + + + + + + + + + + + + + + + + ^ 7.7.7.w.r.+ + + + + + + + :.t.y. .+ + + + + + ",
"+ + + + + + + + + + + + + + + + + + + + + + + + + + R 7.7.7.7.W + + + + + + + + + + + + + + + + + + ",
"+ + + + + + + + + + + + + + + + + + + + + + + + + + u.w.7.7.( :.+ + + + + + + + + + + + + + + + + + ",
"+ + + + + I ) I + + + + + + + + + + + + + + + + + + P u.' ^ 0.+ + + + + + + + + + + + + + + + + + + ",
"+ + + + i.p.e.p.r.+ + + + + + + + + + + + + + + + + + + + + + + + + + + + + + + + + + + + + + + + + ",
"+ + + :.q.7.7.7.e.:.+ + + + + + + + + + + + + + + + + + + + + + + + + + + + + + + + + + + + + + + + ",
"+ + + W a.7.7.7.7.W + + + + + + + + + + + + + + + + + + + + + + + + + + + + + + + + + + + + + + + + ",
"+ + + 8.a.7.7.7.a.8.+ + + + + + + + + + + + + + + + + + + + + + + + + + + + + + + + + + + + + + + + ",
"+ + + -.p.7.7.7.p.) + + + + + + + + + + + + + + + + + + + + + + + + + + + + + + + + + + + + + + + + ",
"+ + + + :.s.R s.:.+ + + + + + + + + + + + + + + + + + + + + + + + + + + + + + + + + + + + + + + + + ",
"+ + + + + + + + + + + + + + + + + + + + + + + + + + + + + + + + + + + + + + + + + + + + + + + + + + "
};
