/* XPM */
static char *_9a54b83e48041479b39d1dd631ca9cdaU5JP5wxd5HOrqoH[] = {
/* columns rows colors chars-per-pixel */
"50 50 88 1 ",
"  c #0A0604",
". c #0E0905",
"X c #110B06",
"o c #180F08",
"O c #1B120A",
"+ c #22150C",
"@ c #301F11",
"# c #372314",
"$ c #442A15",
"% c #482C17",
"& c #472E19",
"* c #492F1A",
"= c #4C311B",
"- c #55351D",
"; c #59371F",
": c #59391F",
"> c #5D3B21",
", c #623D24",
"< c #674124",
"1 c #694225",
"2 c #6D4429",
"3 c #71472A",
"4 c #754A2B",
"5 c #7A4D2E",
"6 c #7E502E",
"7 c #81522F",
"8 c #855431",
"9 c #895732",
"0 c #8B5932",
"q c #915C34",
"w c #915D34",
"e c #915C35",
"r c #935D35",
"t c #925E34",
"y c #955E35",
"u c #955F35",
"i c #945F36",
"p c #966035",
"a c #966037",
"s c #996236",
"d c #996237",
"f c #9A6337",
"g c #996239",
"h c #996339",
"j c #9E6438",
"k c #9E6439",
"l c #9E6639",
"z c #9F6639",
"x c #9F663A",
"c c #A06639",
"v c #A0663A",
"b c #A2673A",
"n c #A16839",
"m c #A3683A",
"M c #A2693A",
"N c #A3683B",
"B c #A5693B",
"V c #A46A3A",
"C c #A76B3B",
"Z c #A56A3E",
"A c #A76C3F",
"S c #A86C3C",
"D c #A96C3C",
"F c #AA6E3D",
"G c #AC6E3D",
"H c #AD6F3E",
"J c #AD703E",
"K c #AF703E",
"L c #AF713E",
"P c #B0713F",
"I c #A86D40",
"U c #A96D40",
"Y c #AB6E40",
"T c #AE7040",
"R c #B07240",
"E c #B47443",
"W c #B47543",
"Q c #B57543",
"! c #B67643",
"~ c #B57544",
"^ c #B57645",
"/ c #B77644",
"( c #B77744",
") c #B67645",
"_ c #B67745",
"` c #B87744",
"' c #B87745",
"] c #B87845",
/* pixels */
",,,,,,,,,,,>,,,,,>,,,,,>,<,,,,,,,,,,>,,,,,>,,,,,,,",
",27igghgggshhhgghhhhggsgggggaghgggsggggghhhhgsq62,",
",75l!(((''_!]!]_((]]''''____((!!'''']!`]((]]`!p66,",
",al5fLL5-jLLLLLLTLTTLHLHPLLLTLLTLHLHLLLLa-8TLp6a0,",
",h(s6sL*.0PLLLHLLLHHLHLLHLLLLLLJLLLLLHHL6 :Pp7jC0,",
",g(Ls6sa7DLDDHDHFFHFFHFFFFFFJFFFFFFFFHFHl6fa6jLZ8,",
",g(lwp6accjljslklllljjjjjjjjjllljjjjjslgfVa6p0VV9,",
",g!&+ws45555652111<<11<1111112,<<1135575664j0o:V9,",
",g]<*sc5cDmDTZ2---->->>--->-*->----3ZFDcFc5Qi$4Z8<",
",g_FDFj5F0$7R'U4455,485555542575545U!Rw$6c7_TSSc9>",
",g'TPDk5D5.,LL!F545449755555359545F!LL5X>c9!!KHC9<",
",g'LHDj7VCwCLHL`U55,5955555525945F_PHLFiVZ5_PHHC8>",
",g'HLFk5CLPLLHHL_U5,595555552675U_PHLHLLHs8_RPLc9>",
",g'LHFk5wjHPHLLHY_U559555555237U_THLHLLFk06!PHHC9,",
",g'THFl21pVFLLHLTT_U57555555,5U_YPHLLHLl015_RPUc9,",
",g'THFl2%1wcFHLHTTY_U54555555U'HLHLHLFl0<$5!PPRC8,",
",g'HHDc4;$,icHKHTKKK_Z545545H_LHKHKHHki,%>7`PPLl0,",
",g'PHFk45,$1icHHKKKHL_U5445U_LHLHKHHce,%,57`PHLC9,",
",g'HHHj455;$1imHHKHKPL_S45U'PHLHHHHce>%,547!PPPc8,",
",g'HHFj5553-%1iCHHKHHKK!cU'YHLHLHHci,$17557_PPHc9,",
",g'PHHj45533,%,icHHHKHHF!_PHLHLHUke,*>78559!HYHD8,",
",g'HHHj455349,%,icHHHKF!_LLLHLHHce,$,,78545_RRHZ8,",
",g'PKDc5553495>$,icHKHQ!HHLHLHFce,$,4,78555'RPPc0,",
",g'HKDk35533955>%2ymH`!HLHHLHFcq,$,55488557'RYHZ9,",
",g'PHFk455239755>$1l!!PHHLHHHcw<$,555278546_RHPc9>",
",g'RLFk5553495555,3F!LLLLHHHccl2,5555287558_RLHZ9,",
",g'FHFj45533955535F'LHLHHHHllH!F53554277556_RLLc9,",
",g'PHFk4554497545U_PLHHLLHccCHL_U5455279558_RHHC9>",
",g'HHFj555330545Y'PLLHLHHccDHHPP'Y535286546_RPPc9,",
",g'LKFj44534945U'RHLHPHHccHLHPLHY'U53288555_PPPV9,",
",g'HHDj4553485U'LHLHHHHcyscHHLHLYR_U4,88557_YPYc9>",
",g'PHDj555425U_LLLHLHHcw<<icHHLHRYY_U566558_RYRU9,",
",g'PLFj45534U]PPKHKHHci,$$,icDKHKGPK(Z55548_TTLZ8,",
",g'HPDj4545U]PLLHKHHce,$;>%1ycHKHPPGL(F5455_RTPc8,",
",g'LHDj545F'LLHLPHYci,$>55>$1yjGJKGPLL!A538_RHLc0,",
",g'HHDj45F_HHHLHHHc9,%>5555>%,ijFKKKLLL!I46_RPYC8,",
",g'PHHj5F!LLLHLHHce,*,555555-$2yjJLHLHLL_l5_RHLc8,",
",g]PHFk7LLLLHLHHce,$,95555552>%,pjLLHLLLUc8_RLLZ0,",
",g'UHFl5Zg1aHLHce,%>5955555527,$<ajFLLj1qZ8!RHHC8,",
",g'PPFj5F3 ,PHcq,$,,59555555259,$<yjDL5 >m8_RLLc9,",
",h_VlVj6Fs1iPcw,$>52595555552585>%,icFl2ec9_FgZC8,",
",g!=+wj6sClCV0<%>4523955554525855:%2wsDcDs5_0O>c9,",
",g`:#fy467778554588778775785688677455777853lw@1C8,",
",g`LFp6j!__!__``~_!'____________`!__']__!_l5sFPc0,",
",g]Pi6j7,VRRPPRRRRRPRRRRPRRRPPPLHPPRLPRRl>0s6gLC8,",
",g!i5lL&.0PHLHHLHPPHLHLHHYPPHLLLKHHPFLLL5 >Hs5gF0,",
",wa5lLPa5CLHHHLHTHRRHLFLLHHPHHLLHPPHLFPPc5sLPs5s0,",
",67jVVjcCcCccCccmcccccCccCccCccDcmccVCjccCCcVZs65,",
",270970897097097097097007079709799970970970970072,",
",,,,,,,,,,,,,,,,,,,,,,,,,,<,,,,,,,,,,,,,,,,,,,,,,,"
};
