/* XPM */
static char *result[] = {
/* columns rows colors chars-per-pixel */
"50 39 28 1 ",
"  c #3C9DFB",
". c #4DADF7",
"X c #43A4F9",
"o c #49AAF8",
"O c #54B4F6",
"+ c #58B7F7",
"@ c #57B8F5",
"# c #5CBCF4",
"$ c #61BEF6",
"% c #62BEF8",
"& c #5FC0F3",
"* c #62C2F3",
"= c #6AC6F6",
"- c #6EC8F6",
"; c #65C1F9",
": c #6DC5F9",
"> c #6FC8F8",
", c #71C7FA",
"< c #74CBFA",
"1 c #7ACEFC",
"2 c #7ED0FE",
"3 c #83D3FF",
"4 c #8AD6FF",
"5 c #8ED8FF",
"6 c #94DBFF",
"7 c #9ADEFF",
"8 c #9DE0FF",
"9 c None",
/* pixels */
"99999999999999999999999999999998888787888899999999",
"99999999999999999999999999998766544444466688799999",
"999999999999999999999999998764333333<3333445677899",
"999999999999999999999999865333<<-*******:-<<344678",
"8799999999999999999997864321>=*&********$&**=-1345",
"4688999999999999999876432,=*&&&&#**#****&&&&&&*-<3",
"13578899998888888686431>=&&##&&##**######&&&&&###-",
"#:13688886665555667663=####&###&####*##########&#@",
"#$2687643332322333346653=########################@",
"16663311<<--====-<<3334663-#@@@@@#@@#@@#O###O###@*",
"6533<-=***&*****&***=<233663:#@@@@##O@@@O#OOOO##16",
"32,**&&*&*&&&&&&&&&&&&=-223664,@OOO#OOOOOO#OO#-675",
"-**#&&#&&&&&&#&&&&&&$###$:<33465<$%%%%$$#O@$<68632",
"#######################&###=14677788878664588643<*",
"##########################*15764433354444577864=##",
"@@@@##@@@@#@#@@#@###@@@@=36653333<33%33%333456751%",
"<#OO@@@+@@@O@#@@@@@@O#:3664331<-=*=**=***----44566",
"763$@OOOO@OOOOOOO@O@,466431<******************-334",
"36763#+OOOOOOO++O#-56533<-=$&&&&**$#**&&&***&&&&-1",
"%346764%%#++++%%366533,=#####&#&#$##*&&&&&**#&&##$",
"$%134577766655766433,$##################&&########",
"##$%,3344444444331:$###############@@#############",
"@#@@$$%113313<<-$$@#@@@@OO#O@@#@@@O#O##@@@@@O#@##O",
"OO@OO#OOO+++$@#@OOOO@OO@O@@OOO#O@@OOOOOO@O@OOOOOO#",
"OOOOOOOOOOOOOOOOOOOOOOOOOOOOOOOOOOOOOOOOOOOOOOOOOO",
"O..OO.OOOO.OO.OO.O.OO.OOOO.O.OO.OO.OOO.O.O.OO..O.O",
"...O...............O.......OO.........O....O.....O",
"....................................o........O....",
".o.o..ooo.X.o.o..o.o..X..o.ooo.o..X..o.oo.o.o.o.oo",
"oooo..oo...oXoo.ooooo..oooooooooo..oooo.ooooo.oooo",
"XXXoXoXo.XX.XoXoXoXo.XX.XXooXooo.XX.XXoXoooXXoXoXo",
"oXXoXXXXXXXXXXXoXXXXXXXXXXXXXXXXXXXXXXXXXXXXoXXXXX",
"XXXXXXXXXXXXXXXX   XXXXXXXXXXXXXXXXXXXXXXXXXXXXX  ",
"X X    X  XX  X   X X  X XX    X   X  X X  XX X   ",
" X       X   X        X X          X      X X     ",
"                                                  ",
"                                                  ",
"                                                  ",
"                                                  "
};
