/* XPM */
static char *result[] = {
/* columns rows colors chars-per-pixel */
"50 50 174 2 ",
"   c #633516",
".  c #643816",
"X  c #6A3B16",
"o  c #703D16",
"O  c #744016",
"+  c #794316",
"@  c #7C451C",
"#  c #7F491C",
"$  c #80491C",
"%  c #844B22",
"&  c #884F26",
"*  c #8A472E",
"=  c #8D542B",
"-  c #90562E",
";  c #964B3D",
":  c #8C5C38",
">  c #915632",
",  c #945A33",
"<  c #995E35",
"1  c #97583B",
"2  c #9E613A",
"3  c #A2633D",
"4  c #E30D64",
"5  c #E41666",
"6  c #E41669",
"7  c #E51C6B",
"8  c #E6236D",
"9  c #E72571",
"0  c #E72C75",
"q  c #E82C75",
"w  c #EA2E79",
"e  c #E83277",
"r  c #EA347A",
"t  c #EA3A7E",
"y  c #F0387F",
"u  c #946846",
"i  c #9D7355",
"p  c #A56540",
"a  c #A66840",
"s  c #AD6C47",
"d  c #A57F63",
"f  c #D15469",
"g  c #F35C7C",
"h  c #D26670",
"j  c #AD8B71",
"k  c #FBAD7F",
"l  c #FCB57E",
"z  c #FFCA7A",
"x  c #ED3C81",
"c  c #EE4486",
"v  c #EF4688",
"b  c #EE4B8B",
"n  c #F24589",
"m  c #FB478C",
"M  c #F14989",
"N  c #FC4B8D",
"B  c #EE518E",
"V  c #F25987",
"C  c #FE4E92",
"Z  c #EE5592",
"A  c #EF5B95",
"S  c #EF5F98",
"D  c #F45694",
"F  c #FF5396",
"G  c #F15A95",
"H  c #FF539A",
"J  c #F15F99",
"K  c #FF599F",
"L  c #F47785",
"P  c #F3718E",
"I  c #EF619A",
"U  c #EF6A9D",
"Y  c #F86691",
"T  c #F0639C",
"R  c #FD629C",
"E  c #F16A9D",
"W  c #F87696",
"Q  c #FF5CA2",
"!  c #F36CA1",
"~  c #FD6BA3",
"^  c #FF63AD",
"/  c #FF6BAC",
"(  c #F371A4",
")  c #F677A8",
"_  c #FF72AC",
"`  c #F37AA9",
"'  c #FF63B2",
"]  c #FF66B8",
"[  c #FF74B1",
"{  c #FF73BA",
"}  c #FF7CBC",
"|  c #FF6ECA",
" . c #FF79C7",
".. c #FF7FC5",
"X. c #FF72CC",
"o. c #FF75D3",
"O. c #FF78D9",
"+. c #FF7DE1",
"@. c #F68483",
"#. c #FF998B",
"$. c #F58893",
"%. c #F69596",
"&. c #C6AE9C",
"*. c #FAAA87",
"=. c #F9A997",
"-. c #F9AF9C",
";. c #FAB39E",
":. c #FBBC9F",
">. c #F282AE",
",. c #F586B1",
"<. c #FF83B6",
"1. c #F38AB3",
"2. c #F596BB",
"3. c #FA93BA",
"4. c #F59BBC",
"5. c #FFCD83",
"6. c #FFCD8A",
"7. c #FFD68A",
"8. c #FFDB88",
"9. c #FFD693",
"0. c #FFD89C",
"q. c #FFE188",
"w. c #FFE193",
"e. c #FFF498",
"r. c #D6C5B8",
"t. c #FBC4A1",
"y. c #FEC8A6",
"u. c #FED0A3",
"i. c #FFDDA6",
"p. c #FFEDA7",
"a. c #FFF6B8",
"s. c #FFF8BA",
"d. c #FF81C7",
"f. c #FF8EC3",
"g. c #FF82C8",
"h. c #FF9DC6",
"j. c #FF86D5",
"k. c #F6A3C2",
"l. c #F6ACC6",
"z. c #FFA7CC",
"x. c #FAAAC8",
"c. c #F7B2CC",
"v. c #FFABD6",
"b. c #F9BBD2",
"n. c #FF85E8",
"m. c #FF96E5",
"M. c #FF97E9",
"N. c #FF9CEC",
"B. c #FF94FF",
"V. c #FF9AFD",
"C. c #FFA8E8",
"Z. c #FFA1F5",
"A. c #FFA3FF",
"S. c #FFACFC",
"D. c #FFB4FF",
"F. c #FFBDFF",
"G. c #DFD1C7",
"H. c #FCC3DA",
"J. c #FBCCDC",
"K. c #FFFFC2",
"L. c #FFFFD7",
"P. c #FBD5E3",
"I. c #FBD9E6",
"U. c #FBDCE8",
"Y. c #FFC3FF",
"T. c #FFCBFF",
"R. c #FFD3FF",
"E. c #FFDBFF",
"W. c #FCE1EB",
"Q. c #FCE8EF",
"!. c #FFE2FF",
"~. c #FEF1F6",
"^. c #FEF5FA",
"/. c #FFFFFF",
/* pixels */
"s s s s s s s s s s 2 > > > > > > > > - $ @ @ @ @ @ @ @ @ @ @ @ @ @ @ @ @ @ @ @ @ @ @ @ @ @ @ @ @ @ ",
"s s s s s s s s s s 2 > > > > > > > - = @ @ @ @ @ @ @ @ @ @ @ @ @ @ @ @ @ @ @ @ @ @ @ @ @ @ @ @ @ @ ",
"s s s s s s s s s s 3 > , 2 < > = - > & @ $ % # @ @ @ @ @ @ @ @ @ @ @ @ @ @ @ @ @ @ @ @ @ @ @ @ @ @ ",
"s s s s s s s s < p s < , 3 < > = - > % @ = > % @ @ @ @ @ @ @ @ @ @ @ @ @ @ @ @ @ @ @ @ @ @ @ @ @ @ ",
"s s s s s s s s a s s a , > > > > > = % @ % & # @ @ @ @ @ @ @ @ @ @ @ @ @ @ @ @ @ @ @ @ @ @ @ @ @ @ ",
"s s s s s s s s s s s s 3 > > > > > > % @ @ @ @ @ @ @ @ @ @ @ @ @ @ @ @ @ @ @ @ @ @ @ @ @ @ @ @ @ @ ",
"s s s s s s s s s s s s 2 > > > > > > = @ @ @ @ @ @ @ @ @ @ @ @ @ @ @ @ @ @ @ @ @ @ @ @ @ @ @ @ @ @ ",
"s s s s s a s s s s a 3 , > > > > M./.!.A.j.<.[ ~ E ~ ~ [ d.M.F./././.@ @ @ @ @ @ @ @ @ @ @ @ @ @ @ ",
"s s s s a , < s 3 < , < , > > S.R.N./.Y.C.v.z.k.3.) ! R ~ [ g.N.E././././.@ @ @ @ @ @ @ @ @ @ @ @ @ ",
"s s s s s 3 a s 2 - < s < /.R.R./.C.v.b.P.P.U.I.P.c.>.A b B T E / ..F././.Y.; @ @ @ @ @ @ @ @ @ @ @ ",
"s s s s s s s s < - , 3 f././.m.3.b.U.^./././././.Q.k.A r x G E T T ~ } T./.W R.B.@ @ @ @ @ @ @ @ @ ",
"s s s s s s s s 2 , 1 h /.F.[ ,.b.^./././././././.~.l.E b Z I J T I S T ~ d.S././.V @ @ @ @ @ @ @ @ ",
"s s s s s s s s 3 , W R.A.} ( k.W./././././././.^.H.1.U I I I I I U U U T ~ { R././.@ @ @ @ @ @ @ @ ",
"s s s s s s s s s f.Y.Z.h.x.4.k.P././././.^.~.U.b.1.! T I U T T I A Z Z G T T / /././.@ @ @ @ @ @ @ ",
"s s s s a u s s F.E.D.z.P.U.c.1.k.H.P.P.P.J.b.h.>.U I I I ! I I B c t t c B I J ^ /./.@ @ @ @ @ @ @ ",
"s s s s < > 3 /./.E.z.U.~.P.k.! ( >.2.2.2.>.` ! I U ! I I I I b e 7 6 6 8 r B J G ] O.j.@ @ @ @ @ @ ",
"s s s s 3 3 a /./.f.c.Q.I.k.` U I I T U I T S I I T T I T T Z 0 5 4 4 4 4 5 e A S Z +.!./.+.@ @ @ @ ",
"a 3 3 3 3 3 S.D.m.` 4.c.1.U I I I U T T T T S Z A T T T T S b 6 4 4 4 4 4 4 7 b S Z H /./.F.@ @ @ @ ",
", > > > , < /././ U I I Z b Z I J T T J I I Z c b T T T I A c 6 4 4 4 4 4 4 5 b S Z B X.D.f @ @ @ @ ",
", , > > 2 a !.D.T U U B e 9 0 b S E I T U I I S S S T T U S b 6 4 4 4 4 4 4 7 b I A b H A./.@ @ @ @ ",
"< 3 , > 2 /./.} E T S c 7 4 6 t A U T T T T U I T T T T I I Z 0 5 4 4 4 4 6 w Z T A b m O./.@ @ @ @ ",
", < > > 2 /.!._ J T S c 8 4 6 c Z ! T S S S S I T T T T I I A b 9 7 5 5 7 0 b S J B x x H B.@ @ @ @ ",
"> > > > = D.X.! T T I Z t e t b S I A b v c b A I T I T T T I S b t e e x b S T J v r x m | @ @ @ @ ",
"> > - & $ O.Q A T T T I A Z Z S S A x 0 6 6 9 x A T T T T T T I I A Z Z Z U T T Z c x c n Q @ @ @ @ ",
"> > = @ @ ^ C B A T T T E T I E S v 6 4 4 4 4 8 x I I T T T T T T T I T U J T Z B c c c n C @ @ @ @ ",
"> > = @ @ K n r t b I T T T E T A x 4 4 4 4 4 6 0 S U T T T T T T T E T I J Z v c c c c c n @ @ @ @ ",
"> > > = % F y 7 7 r b J T T T I A r 4 4 4 4 4 6 0 Z I T T I T T T E T J G Z n v c c b G G M @ @ @ @ ",
"> > > > , H x 7 7 w c B Z A J J S x 6 4 4 4 4 7 x S I T T T I I J G D M b v c v M E 4.b.4.A @ @ @ @ ",
"- = - > > ' m r w t c n b b Z Z Z b 9 6 4 4 6 9 v S S S I A Z Z B c t r t x c c E l.I.W.k.R @ @ @ @ ",
"% $ % % & F.O.m x c c c v c c v b c x 0 7 9 w x b B Z Z B b b b x q 6 6 9 t c M 4.P.Q.J.<.o.@ @ @ @ ",
"@ @ @ @ @ /.F.O.C c c c c v v c c v x c x x x v x n v v v x v v r 7 4 4 7 w c B c.J.b.<.X.B.@ @ @ @ ",
"@ @ @ @ @ @ /./.D.F n n c c c c v v c c n v v v v v v v v v b x y 8 4 4 7 r c b E ~ { n.S.f @ @ @ @ ",
"@ @ @ @ @ @ d././.A.] F m c c x c c c c c c c c c c c v n v v n x w 9 8 w x n C Q o.^./.g * @ @ @ @ ",
"@ @ @ @ $ % $ /././././.A. .~ Y A b b c c n c c c n c c x c c c v c M N Q Q X.F././.V.F.@ @ @ @ @ @ ",
"@ @ @ @ = > = @ @ /./.R.n././.y.=.%.%.$.$.$.W P P P P P L L L L @.@.#././.V R V././.. X + @ @ @ @ @ ",
"@ @ @ $ - > - % @ @ @ @ @ /./.a.u.y.t.t.t.:.:.;.;.-.;.=.*.k l l l l 5././.@ @ O         X @ @ @ @ @ ",
"@ @ @ @ & = & @ @ @ @ @ @ /./.a.i.p.i.i.i.i.i.i.i.i.i.9.6.z z z z z q././.@ @ X         X @ @ @ @ @ ",
"@ @ @ @ @ # # @ @ @ @ @ @ /./.a.i.i.i.i.i.i.i.i.i.i.i.9.5.z z z z z q././.@ @ X         X @ @ @ @ @ ",
"@ @ @ @ @ @ @ @ @ @ @ @ @ /./.a.i.i.i.i.i.i.i.i.i.i.0.6.z z z z z z q././.@ @ + . .   X o @ @ @ @ @ ",
"@ @ @ @ @ @ @ @ @ @ @ @ @ /./.a.i.i.i.i.i.i.i.i.i.i.9.5.z z z z z z q././.@ @ @ + o O + @ @ @ @ @ @ ",
"@ @ @ @ @ @ @ @ @ @ @ @ @ /./.L.K.K.K.K.K.K.K.K.s.p.w.8.8.8.8.8.8.7.e././.@ @ @ @ @ @ @ @ @ @ @ @ @ ",
"@ @ @ @ @ @ @ @ @ @ @ @ @ @ @ @ @ @ @ @ @ @ @ @ @ @ O .     X + @ @ @ @ @ @ @ @ @ @ @ @ @ @ @ @ @ @ ",
"@ @ @ @ @ @ + + @ @ @ @ @ @ @ @ @ @ @ @ @ @ @ @ @ @ @ O X X O @ @ @ @ @ @ @ @ @ @ @ @ @ @ @ @ @ @ @ ",
"@ @ @ @ O X X X o @ @ @ @ @ @ @ @ @ @ @ @ @ @ @ @ @ @ @ @ @ @ @ @ @ @ @ @ @ @ @ @ @ @ @ @ @ @ @ @ @ ",
"@ @ @ + X       X + @ @ @ @ @ @ @ @ @ @ @ @ @ @ @ @ @ @ @ @ @ @ @ @ @ @ @ @ @ @ @ @ @ @ @ @ @ @ @ @ ",
"@ @ @ o           o @ @ @ @ @ @ @ @ @ @ @ @ @ @ @ @ @ @ @ @ @ @ @ @ @ @ @ @ @ @ @ @ @ @ @ @ @ @ @ @ ",
"@ @ @ +           o @ @ @ @ @ @ @ @ @ @ @ @ @ @ @ @ @ @ @ @ @ @ @ @ @ r.&.i i j i G.u d j j i u @ @ ",
"@ @ @ @ X     X X + @ @ @ @ @ @ @ @ @ @ @ @ @ @ @ @ @ @ @ @ @ @ @ @ @ : i d u i u i d d d i : @ @ @ ",
"@ @ @ @ + o X o + @ @ @ @ @ @ @ @ @ @ @ @ @ @ @ @ @ @ @ @ @ @ @ @ @ @ @ @ @ @ @ @ @ @ @ @ @ @ @ @ @ ",
"@ @ @ @ @ @ @ @ @ @ @ @ @ @ @ @ @ @ @ @ @ @ @ @ @ @ @ @ @ @ @ @ @ @ @ @ @ @ @ @ @ @ @ @ @ @ @ @ @ @ "
};
