/* XPM */
static char *c547a2b3228140f98bc512cc48741ef9JbaRRei2vhTZ1qkw[] = {
/* columns rows colors chars-per-pixel */
"50 55 204 2 ",
"   c #64391C",
".  c #6C3E1D",
"X  c #74421F",
"o  c #78441E",
"O  c #764520",
"+  c #7A4722",
"@  c #7C4923",
"#  c #7F4E2A",
"$  c #726C57",
"%  c #757873",
"&  c #834724",
"*  c #8B4627",
"=  c #814B26",
"-  c #8E4728",
";  c #854E29",
":  c #8C4B2B",
">  c #98472A",
",  c #944B2D",
"<  c #85512C",
"1  c #8A532D",
"2  c #92502D",
"3  c #974E31",
"4  c #9B4E33",
"5  c #845533",
"6  c #8E5731",
"7  c #8F5832",
"8  c #895B3A",
"9  c #935732",
"0  c #9D5535",
"q  c #915833",
"w  c #9A5835",
"e  c #975D38",
"r  c #995E3A",
"t  c #A6472D",
"y  c #A64D31",
"u  c #AE4A32",
"i  c #B74732",
"p  c #A35435",
"a  c #AB5236",
"s  c #AA533A",
"d  c #B4523A",
"f  c #BA533B",
"g  c #9D613D",
"h  c #99683D",
"j  c #A1643F",
"k  c #CB4738",
"l  c #D64A3D",
"z  c #CB503E",
"x  c #D0503F",
"c  c #BB5744",
"v  c #8E6344",
"b  c #92694B",
"n  c #967054",
"m  c #9C765B",
"M  c #9E795E",
"N  c #A36541",
"B  c #A76845",
"V  c #AA6A47",
"C  c #AC6C49",
"Z  c #A57346",
"A  c #99736B",
"S  c #B76C6B",
"D  c #A27E64",
"F  c #C7594A",
"G  c #D65D51",
"H  c #DB5A56",
"J  c #E74740",
"K  c #EC4741",
"L  c #E04C41",
"P  c #EC4A44",
"I  c #F44744",
"U  c #FF4747",
"Y  c #F44945",
"T  c #FC4846",
"R  c #FF4748",
"E  c #F7494A",
"W  c #FF4B4B",
"Q  c #EB504E",
"!  c #FF534D",
"~  c #FF594C",
"^  c #E75D5A",
"/  c #FF5353",
"(  c #FC5A52",
")  c #FE5C5C",
"_  c #FF654E",
"`  c #ED625D",
"'  c #E3685A",
"]  c #FF6456",
"[  c #F1635F",
"{  c #FF6E5D",
"}  c #C16868",
"|  c #F36360",
" . c #FF6666",
".. c #FF6966",
"X. c #E57664",
"o. c #FF7365",
"O. c #FF7A63",
"+. c #55847E",
"@. c #59857F",
"#. c #708379",
"$. c #B28252",
"%. c #A6846C",
"&. c #AB8B74",
"*. c #B0937D",
"=. c #FC8556",
"-. c #FE985B",
";. c #FEA85D",
":. c #FEB85F",
">. c #D8817A",
",. c #FE8264",
"<. c #FE8B63",
"1. c #FE9463",
"2. c #FE9D63",
"3. c #FE9C69",
"4. c #FF8371",
"5. c #FE9774",
"6. c #FEA261",
"7. c #FEAB61",
"8. c #FEB660",
"9. c #FEB961",
"0. c #FFBC69",
"q. c #FFA473",
"w. c #FCA779",
"e. c #E8B57E",
"r. c #FFB877",
"t. c #FEC172",
"y. c #FEC47E",
"u. c #5A8883",
"i. c #798988",
"p. c #73908A",
"a. c #639696",
"s. c #659999",
"d. c #68999A",
"f. c #72A1A1",
"g. c #7DA9A9",
"h. c #00CBFF",
"j. c #09CFFF",
"k. c #0FD0FF",
"l. c #17D1FF",
"z. c #24D4FF",
"x. c #35D8FF",
"c. c #4CDBFE",
"v. c #55DCFA",
"b. c #6ADDF5",
"n. c #6BE1FD",
"m. c #898885",
"M. c #909F88",
"N. c #AB9D8C",
"B. c #B69A85",
"V. c #B79D8A",
"C. c #A69595",
"Z. c #96A18C",
"A. c #88A396",
"S. c #BCA28F",
"D. c #A6AF99",
"F. c #BAA393",
"G. c #86AEAE",
"H. c #9CB4AC",
"J. c #95B9BA",
"K. c #9EBEBE",
"L. c #D19595",
"P. c #C3AC9C",
"I. c #F0A88F",
"U. c #FFB182",
"Y. c #FCBB87",
"T. c #C7BBB0",
"R. c #B5C2B5",
"E. c #FEC780",
"W. c #FEC48A",
"Q. c #F5C88D",
"!. c #FECC8E",
"~. c #FECE90",
"^. c #FECE91",
"/. c #FFD192",
"(. c #FFD39C",
"). c #D4C6BD",
"_. c #DFDAB9",
"`. c #FECCA3",
"'. c #FCD7A5",
"]. c #FEDCAC",
"[. c #F2D7B6",
"{. c #F4DDB5",
"}. c #FCE0BA",
"|. c #A3C2C2",
" X c #A9C6C6",
".X c #AECBCB",
"XX c #B3CDCD",
"oX c #BEDBCA",
"OX c #8EE3F2",
"+X c #B2E6E8",
"@X c #D3CBC4",
"#X c #D0D3C9",
"$X c #E0DFC4",
"%X c #D6E0CA",
"&X c #C6E6DE",
"*X c #D7E5D4",
"=X c #F4E4C6",
"-X c #D3EAE3",
";X c #E6E6E7",
":X c #E7E8E5",
">X c #E7E8E8",
",X c #EAEBEC",
"<X c #F8F8F8",
"1X c #FEFEFE",
/* pixels */
"C C C C C C C C B e 6 q q 6 q q q q 6 1 + + + + @ + @ + + + + + + + @ + + + + + + + + @ + + + + + + ",
"C C C C C C C C V e q 6 q q 6 q 6 q 6 ; @ @ + & & + O @ + + + + + + O @ + + + + + + @ O @ O + + + + ",
"C C C C C C C C V g q q g q 6 q 6 q 6 = @ @ u J l * @ + + + + @ + + + + + + + @ + + + + + @ + + @ + ",
"C C C C C C B N C j q q j g q 1 1 7 1 @ @ u I R U > O + + + @ O + + + + + + @ O + + + + + + + + + + ",
"C C C C C C B g C V g 6 e q q q w w 1 o ; L U U I , O + O @ O + O + + @ + + + + + + + + + + + + + + ",
"C C C C C C C C C C B g q 6 w x P P L i u T U U P 3 : 2 : , : : : # + O + + + + + @ + + + + + + + + ",
"C C C C C C C C C C V g q 6 p T U U U U U W / ) ) ` | | | | | | ^ H F c 2 @ + + + + + + + + + + + + ",
"C C C C C C C C V V V g q q q x U U U U ! ]  . . . . . . . . . . . . . .[ G s # O + + @ + + @ + + + ",
"C C C N g C C C B N e 7 q q 6 q c P R /  . . . . . . . . . . . . . . . . . . .H 3 O + + + + + + + @ ",
"C C V e 9 B V g 9 e g 9 q q 6 q f I W  . . . . . . . . . . . . . . . . . . . . .^ 3 + @ + + + + + + ",
"C C C B N V B q 9 v C r q q q z T U  . . . . . . . . . . . . . . . . . . . ... . .' : O @ O + + + @ ",
"C C C V C V N 6 9 e g e q q z U U /  . . . . . . . . . . . . . . . . ... . . . . . .c + + @ + + + O ",
"C C C C C C B q 9 q q q 6 f T U T )  . . . . . . . . . . . . . . . . . . . . . . . .^ : + + + + + + ",
"C C C C C C C e q q q q w P U U U  . . . ... . . . . . . . . . . . . . . . . . . . . .s O + @ + + + ",
"C C C C C C C B q q q 6 f U U U W  . . . . . . . . . . ..... . . . . . . . . . . . . .F O @ + + + + ",
"C C V B V C C V e q q q l U U U /  . . . . . . . . . ... . . . . ... . . . . . . . . .G @ + + + + + ",
"C V g q j C C C e 7 7 0 I U U U /  . . . . . . . . . . . . . . . . . . . . . . . . . .' # O + + + @ ",
"C V e q j C C j q 7 7 a I U U U /  . . . . . . . . . . . . . . . . . . . . . . . . . .` : + + + + + ",
"C C V B V V j q q q q d T T U U )  . . . . . . . . . . . . . . . . . . . . . . . . . .` : + + + + + ",
"g g j g g e q q q 6 6 f T T U U /  . . . . . . . . . . . . . . . . ..... . . . . . . .` * + + + + + ",
"7 q q e g q q 7 q q 7 f U U U U /  . . . . . . . . . . . . . . . . .O... . . . . . ...` : + + + + + ",
"q 7 e B V B e 7 1 1 < d U U U U W  . . . . . . . . . . . . . . . ...<... . . . . . . .H # + + + + + ",
"q q g V C V g 6 1 @ o u U U U U U  . . . . . . . . . . . . . . . .o.7.O. . . . . . . .F + + @ + + + ",
"7 q e V C B q 6 1 @ @ u U U U U U /  . . . . . . . .......o.o.,.<.7.8.2.O....... . .[ 3 O @ O @ + + ",
"q q q e g e q q 6 1 < a U U U U ~ =.O. ...<.1.1.1.3.w.r.r.r.y.y.E.E.E.y.r.r.q.2.1.| 4 + + + + + + + ",
"q 1 ; 1 6 q q 7 q q 6 p T U U ~ -.8.<. ...6.9.9.E.].-X&X[.!.~.~.~.~.~./.}.&X*X(.r.' @ + + + + + + + ",
"1 @ @ @ 1 q q 6 q 6 6 p Y U U =.:.:.,. ...6.:.y.].+Xl.j.b.'.~.~.~.~.~.'.OXk.z.&X~.X.& + + + @ + + + ",
"1 @ + + ; 6 q q q q 7 p Y U U -.9.8.O. . .6.0.!.=Xc.h.h.l.#X!.~.~.!./.$Xl.h.h.b.(.' @ + + + + + + + ",
"6 ; @ @ 1 q q 6 q q 7 p Y U T =.:.;.o. . .6.0.~.=Xx.h.h.j.oX!.!.~.!.!.%Xl.h.j.v.`.' : + + + + + @ + ",
"q 6 1 6 q q q q q 7 < y U U U _ 8.2... ...2.t.~.}.n.h.h.z._.!.~.~.~.!.{.c.h.j.OXI...0 + + + + + + + ",
"q 7 q 6 q q 6 q 7 6 ; i U U T W _ O. . ...;.t.~.(.-Xc.x.+X/.~.~.~.~.~.(.*Xb.OX[.4. .d O + + + + + + ",
"6 6 q q 6 6 q q q 7 7 l U U U U W  . . . .;.0.~./.(.=X=X(.~.~.~.~.~.~.~./.].`.5. . .H @ + + + + + + ",
"= ; < 1 6 7 7 7 q 7 d T U U U U /  . . . .! X.e.Q.Q.!.!.~.~.Q.~.~.!.!.W.U.5.{  . . .| : @ + + @ + + ",
"o @ o o @ # # < ; 0 P U U U T T )  . . .) H A #.i.A.A.M.M.M.D.D.Z.*.X.] W U U ]  . . .4 O @ @ O + + ",
"o @ @ @ + + + + & l U U U U T !  . . . .^ % +.+.+.a.a.a.a.a.|. Xs.u.% G U U U )  . . .s O + O @ + + ",
"@ @ o @ + + + + * K U U U U U !  . . . .^ i.+.+.@.a.s.s.d.s.d.d.s.u.% A U U U /  . .[ 4 O @ O @ + + ",
"@ + o # o @ @ o > I U T U U U W )  . .) ] ).H.a.@.s.s.s.s.s.f.|.f.a.g.>.W T U U Q c 4 + @ + + + + + ",
"o @ ; 6 6 = @ o > T U T U U U U T W W U <.~.'.I.i.s.s.d.s.s.f..Xf.R.[.U.T U U U k O . . . O + + + + ",
"+ @ 7 7 7 < o @ - P T T U U U U U U T { Y.~.W.] A d.d.a.a.a.a.a.i.Y.~.Q.O.T T U i .         O + + + ",
"+ @ 6 7 q ; o @ @ k T U U U U U T T ] Y.~./.w.T L.XX.X X|. X X.XL.4.~.~.!.O.U I *           . @ + @ ",
"+ + = 1 : @ + + + - K U U U U U U W w./.~.!...E C.J.K.|.|.|.K.J.C.! U.~.Q.W.] k .           . + @ O ",
"+ + + + + + + + @ O > K U U U U U O.~.~./.5.W } a.a.a.a.a.a.s.s.a.S O.!.!./.w., . .         . + + + ",
"+ + + + + + + @ + + + - l T U U U 5./.~.U.( H p.s.s.s.s.s.s.s.s.s.p.' q./.~.Q.h + .       . + + + + ",
"+ + + + + + + + + + + + @ t l I U { U.w.] Q m.s.s.s.s.s.s.s.d.s.d.s.m.F e./.W.h + + o . o + + + + + ",
"+ + + + + + + + + + + + + + + - u k L P P S a.s.s.s.s.s.s.s.d.s.d.d.s.$ 9 $.Z # + + + + + + + + + + ",
"+ + + + + + + + + + @ + + + + + + @ = & : m.s.s.d.s.s.d.s.s.s.s.d.s.s.#.+ + O + + + + + + + + + + + ",
"+ + + + @ + + + + + + + + + + + + + + + + N.K.f.s.a.s.s.s.s.a.a.s.d.J.N.+ + + @ + + @ + + + + + + + ",
"+ + O O . . X + + + + + + + + + + + + + @ # *.#XXXJ.G.g.g.g.G.J..X#XF.8 + + + + + + + + + + + + + + ",
"+ + .         O + + + + + + + + + + + + + + X V.1X1X<X:XT.@X,X,X,X@X# O @ + + + + + + + + + + + + + ",
"+ O           . + + + + + + + + + + + + + + o B.1X1X1X).@ &.;X;X>X@X< O O @ + + + + + + + + @ + + + ",
"+ O             + + + + + + + + + + + + + + o B.1X1X1XP.X n ;X;X>X@X# 8 5 @ @ @ # 8 @ & + + # ; + + ",
"+ O           . + + + + + + + + @ + + + + + o B.1X1X<Xm o 5 ).;X>X@Xb F.S.%.&.&.&.P.&.D %.&.D 8 o @ ",
"+ + .         O @ + + + + + + + + + + + + + o B.1X1X@X< + + V.,X,XT.5 v b m m m D n D m M m v + + + ",
"+ + + O . . O + + + + + + + + + + + + + + + o D 1X<X&.+ + + v @X,XV.O + O + O + O + . = O + + + + + ",
"+ + + @ + + + + + + + + + + + + + + + + + + + 5 F.B.# + + + + m F.b + + + + @ + + + + + + + + + + @ "
};
